<mxfile host="app.diagrams.net" modified="2021-02-21T11:49:52.377Z" agent="5.0 (Windows NT 10.0; Win64; x64) AppleWebKit/537.36 (KHTML, like Gecko) Chrome/88.0.4324.182 Safari/537.36" etag="zVB8FbwPLY6SFg7csB07" version="14.4.2" type="github">
  <diagram id="ga8Eyx0R0dnI47a1ck-I" name="Page-1">
    <mxGraphModel dx="1422" dy="779" grid="1" gridSize="10" guides="1" tooltips="1" connect="1" arrows="1" fold="1" page="1" pageScale="1" pageWidth="827" pageHeight="1169" math="0" shadow="0">
      <root>
        <mxCell id="0" />
        <mxCell id="1" parent="0" />
        <mxCell id="BEVveeXb6Ck2c--d9WDv-6" style="rounded=0;orthogonalLoop=1;jettySize=auto;html=1;entryX=-0.02;entryY=0.932;entryDx=0;entryDy=0;entryPerimeter=0;endArrow=diamond;endFill=1;endSize=23;startSize=23;exitX=1;exitY=0.5;exitDx=0;exitDy=0;" parent="1" source="BEVveeXb6Ck2c--d9WDv-2" target="QPdnE1CLUlIL2td6pCKr-2" edge="1">
          <mxGeometry relative="1" as="geometry">
            <mxPoint x="220" y="103.36660039761432" as="sourcePoint" />
          </mxGeometry>
        </mxCell>
        <mxCell id="BEVveeXb6Ck2c--d9WDv-7" value="1..*" style="edgeLabel;html=1;align=center;verticalAlign=middle;resizable=0;points=[];" parent="BEVveeXb6Ck2c--d9WDv-6" vertex="1" connectable="0">
          <mxGeometry x="0.279" y="-3" relative="1" as="geometry">
            <mxPoint as="offset" />
          </mxGeometry>
        </mxCell>
        <mxCell id="B22s-Yo0bM5c4fi7S5wt-9" style="edgeStyle=orthogonalEdgeStyle;rounded=0;orthogonalLoop=1;jettySize=auto;html=1;endArrow=none;endFill=0;endSize=26;entryX=0.5;entryY=0;entryDx=0;entryDy=0;" parent="1" source="QPdnE1CLUlIL2td6pCKr-1" target="B22s-Yo0bM5c4fi7S5wt-10" edge="1">
          <mxGeometry relative="1" as="geometry">
            <mxPoint x="425" y="210" as="targetPoint" />
          </mxGeometry>
        </mxCell>
        <mxCell id="QPdnE1CLUlIL2td6pCKr-1" value="Faculty" style="swimlane;fontStyle=1;align=center;verticalAlign=top;childLayout=stackLayout;horizontal=1;startSize=26;horizontalStack=0;resizeParent=1;resizeParentMax=0;resizeLast=0;collapsible=1;marginBottom=0;shadow=1;" parent="1" vertex="1">
          <mxGeometry x="330" y="20" width="190" height="130" as="geometry" />
        </mxCell>
        <mxCell id="QPdnE1CLUlIL2td6pCKr-2" value="- name : string&#xa;- Instituts[] : Institut&#xa;- dekan: Dekan" style="text;strokeColor=none;fillColor=none;align=left;verticalAlign=top;spacingLeft=4;spacingRight=4;overflow=hidden;rotatable=0;points=[[0,0.5],[1,0.5]];portConstraint=eastwest;" parent="QPdnE1CLUlIL2td6pCKr-1" vertex="1">
          <mxGeometry y="26" width="190" height="44" as="geometry" />
        </mxCell>
        <mxCell id="QPdnE1CLUlIL2td6pCKr-3" value="" style="line;strokeWidth=1;fillColor=none;align=left;verticalAlign=middle;spacingTop=-1;spacingLeft=3;spacingRight=3;rotatable=0;labelPosition=right;points=[];portConstraint=eastwest;" parent="QPdnE1CLUlIL2td6pCKr-1" vertex="1">
          <mxGeometry y="70" width="190" height="8" as="geometry" />
        </mxCell>
        <mxCell id="QPdnE1CLUlIL2td6pCKr-4" value="+ setName(name : string): void&#xa;+ getName() : string" style="text;strokeColor=none;fillColor=none;align=left;verticalAlign=top;spacingLeft=4;spacingRight=4;overflow=hidden;rotatable=0;points=[[0,0.5],[1,0.5]];portConstraint=eastwest;" parent="QPdnE1CLUlIL2td6pCKr-1" vertex="1">
          <mxGeometry y="78" width="190" height="52" as="geometry" />
        </mxCell>
        <mxCell id="QPdnE1CLUlIL2td6pCKr-9" value="Worker" style="swimlane;fontStyle=3;align=center;verticalAlign=top;childLayout=stackLayout;horizontal=1;startSize=26;horizontalStack=0;resizeParent=1;resizeParentMax=0;resizeLast=0;collapsible=1;marginBottom=0;glass=0;rounded=0;shadow=1;" parent="1" vertex="1">
          <mxGeometry x="610" y="450" width="190" height="118" as="geometry" />
        </mxCell>
        <mxCell id="QPdnE1CLUlIL2td6pCKr-10" value="# id: size_t&#xa;# name: string&#xa;# email : string" style="text;strokeColor=none;fillColor=none;align=left;verticalAlign=top;spacingLeft=4;spacingRight=4;overflow=hidden;rotatable=0;points=[[0,0.5],[1,0.5]];portConstraint=eastwest;" parent="QPdnE1CLUlIL2td6pCKr-9" vertex="1">
          <mxGeometry y="26" width="190" height="44" as="geometry" />
        </mxCell>
        <mxCell id="QPdnE1CLUlIL2td6pCKr-11" value="" style="line;strokeWidth=1;fillColor=none;align=left;verticalAlign=middle;spacingTop=-1;spacingLeft=3;spacingRight=3;rotatable=0;labelPosition=right;points=[];portConstraint=eastwest;" parent="QPdnE1CLUlIL2td6pCKr-9" vertex="1">
          <mxGeometry y="70" width="190" height="8" as="geometry" />
        </mxCell>
        <mxCell id="QPdnE1CLUlIL2td6pCKr-12" value="+ getersÂ &#xa;+ seters" style="text;strokeColor=none;fillColor=none;align=left;verticalAlign=top;spacingLeft=4;spacingRight=4;overflow=hidden;rotatable=0;points=[[0,0.5],[1,0.5]];portConstraint=eastwest;" parent="QPdnE1CLUlIL2td6pCKr-9" vertex="1">
          <mxGeometry y="78" width="190" height="40" as="geometry" />
        </mxCell>
        <mxCell id="B22s-Yo0bM5c4fi7S5wt-60" style="edgeStyle=orthogonalEdgeStyle;curved=0;rounded=1;sketch=0;orthogonalLoop=1;jettySize=auto;html=1;exitX=0.5;exitY=1;exitDx=0;exitDy=0;entryX=0.5;entryY=0;entryDx=0;entryDy=0;endArrow=diamond;endFill=1;endSize=26;strokeColor=#000000;fillColor=#F45B69;fontSize=10;fontColor=#E4FDE1;" parent="1" source="BEVveeXb6Ck2c--d9WDv-1" target="B22s-Yo0bM5c4fi7S5wt-54" edge="1">
          <mxGeometry relative="1" as="geometry" />
        </mxCell>
        <mxCell id="B22s-Yo0bM5c4fi7S5wt-62" value="&lt;font color=&quot;#000000&quot;&gt;1..*&lt;/font&gt;" style="edgeLabel;html=1;align=center;verticalAlign=middle;resizable=0;points=[];fontSize=10;fontColor=#E4FDE1;" parent="B22s-Yo0bM5c4fi7S5wt-60" vertex="1" connectable="0">
          <mxGeometry x="-0.7684" y="-1" relative="1" as="geometry">
            <mxPoint as="offset" />
          </mxGeometry>
        </mxCell>
        <mxCell id="BEVveeXb6Ck2c--d9WDv-1" value="University" style="swimlane;fontStyle=1;align=center;verticalAlign=top;childLayout=stackLayout;horizontal=1;startSize=26;horizontalStack=0;resizeParent=1;resizeParentMax=0;resizeLast=0;collapsible=1;marginBottom=0;glass=0;shadow=1;" parent="1" vertex="1">
          <mxGeometry x="40" y="40" width="190" height="78" as="geometry" />
        </mxCell>
        <mxCell id="BEVveeXb6Ck2c--d9WDv-2" value="- faculties[] : Faculty&#xa;- students[] : Student" style="text;strokeColor=none;fillColor=none;align=left;verticalAlign=top;spacingLeft=4;spacingRight=4;overflow=hidden;rotatable=0;points=[[0,0.5],[1,0.5]];portConstraint=eastwest;" parent="BEVveeXb6Ck2c--d9WDv-1" vertex="1">
          <mxGeometry y="26" width="190" height="44" as="geometry" />
        </mxCell>
        <mxCell id="BEVveeXb6Ck2c--d9WDv-3" value="" style="line;strokeWidth=1;fillColor=none;align=left;verticalAlign=middle;spacingTop=-1;spacingLeft=3;spacingRight=3;rotatable=0;labelPosition=right;points=[];portConstraint=eastwest;" parent="BEVveeXb6Ck2c--d9WDv-1" vertex="1">
          <mxGeometry y="70" width="190" height="8" as="geometry" />
        </mxCell>
        <mxCell id="B22s-Yo0bM5c4fi7S5wt-2" value="Institut" style="swimlane;fontStyle=1;align=center;verticalAlign=top;childLayout=stackLayout;horizontal=1;startSize=26;horizontalStack=0;resizeParent=1;resizeParentMax=0;resizeLast=0;collapsible=1;marginBottom=0;shadow=1;" parent="1" vertex="1">
          <mxGeometry x="610" y="20" width="190" height="150" as="geometry" />
        </mxCell>
        <mxCell id="B22s-Yo0bM5c4fi7S5wt-3" value="- name : string&#xa;- adress : string" style="text;strokeColor=none;fillColor=none;align=left;verticalAlign=top;spacingLeft=4;spacingRight=4;overflow=hidden;rotatable=0;points=[[0,0.5],[1,0.5]];portConstraint=eastwest;" parent="B22s-Yo0bM5c4fi7S5wt-2" vertex="1">
          <mxGeometry y="26" width="190" height="44" as="geometry" />
        </mxCell>
        <mxCell id="B22s-Yo0bM5c4fi7S5wt-4" value="" style="line;strokeWidth=1;fillColor=none;align=left;verticalAlign=middle;spacingTop=-1;spacingLeft=3;spacingRight=3;rotatable=0;labelPosition=right;points=[];portConstraint=eastwest;" parent="B22s-Yo0bM5c4fi7S5wt-2" vertex="1">
          <mxGeometry y="70" width="190" height="8" as="geometry" />
        </mxCell>
        <mxCell id="B22s-Yo0bM5c4fi7S5wt-5" value="+ setName(name : string): void&#xa;+ getName() : string&#xa;+ setAdress(adress: string): void&#xa;+ getAdress() : string&#xa;" style="text;strokeColor=none;fillColor=none;align=left;verticalAlign=top;spacingLeft=4;spacingRight=4;overflow=hidden;rotatable=0;points=[[0,0.5],[1,0.5]];portConstraint=eastwest;" parent="B22s-Yo0bM5c4fi7S5wt-2" vertex="1">
          <mxGeometry y="78" width="190" height="72" as="geometry" />
        </mxCell>
        <mxCell id="B22s-Yo0bM5c4fi7S5wt-1" style="edgeStyle=orthogonalEdgeStyle;rounded=0;orthogonalLoop=1;jettySize=auto;html=1;entryX=-0.017;entryY=0.786;entryDx=0;entryDy=0;entryPerimeter=0;endArrow=diamond;endFill=1;endSize=26;verticalAlign=middle;" parent="1" source="QPdnE1CLUlIL2td6pCKr-2" target="B22s-Yo0bM5c4fi7S5wt-3" edge="1">
          <mxGeometry relative="1" as="geometry">
            <mxPoint x="600" y="68" as="targetPoint" />
          </mxGeometry>
        </mxCell>
        <mxCell id="B22s-Yo0bM5c4fi7S5wt-8" value="1..*" style="edgeLabel;html=1;align=center;verticalAlign=middle;resizable=0;points=[];" parent="B22s-Yo0bM5c4fi7S5wt-1" vertex="1" connectable="0">
          <mxGeometry x="-0.788" y="1" relative="1" as="geometry">
            <mxPoint as="offset" />
          </mxGeometry>
        </mxCell>
        <mxCell id="B22s-Yo0bM5c4fi7S5wt-10" value="Dekan" style="swimlane;fontStyle=1;align=center;verticalAlign=top;childLayout=stackLayout;horizontal=1;startSize=26;horizontalStack=0;resizeParent=1;resizeParentMax=0;resizeLast=0;collapsible=1;marginBottom=0;glass=0;rounded=0;shadow=1;" parent="1" vertex="1">
          <mxGeometry x="330" y="230" width="190" height="34" as="geometry" />
        </mxCell>
        <mxCell id="B22s-Yo0bM5c4fi7S5wt-12" value="" style="line;strokeWidth=1;fillColor=none;align=left;verticalAlign=middle;spacingTop=-1;spacingLeft=3;spacingRight=3;rotatable=0;labelPosition=right;points=[];portConstraint=eastwest;" parent="B22s-Yo0bM5c4fi7S5wt-10" vertex="1">
          <mxGeometry y="26" width="190" height="8" as="geometry" />
        </mxCell>
        <mxCell id="B22s-Yo0bM5c4fi7S5wt-15" style="edgeStyle=orthogonalEdgeStyle;rounded=0;orthogonalLoop=1;jettySize=auto;html=1;entryX=0;entryY=0.5;entryDx=0;entryDy=0;endArrow=classic;endFill=0;endSize=26;exitX=0.5;exitY=1;exitDx=0;exitDy=0;" parent="1" source="B22s-Yo0bM5c4fi7S5wt-10" target="QPdnE1CLUlIL2td6pCKr-10" edge="1">
          <mxGeometry relative="1" as="geometry">
            <mxPoint x="520" y="278" as="sourcePoint" />
          </mxGeometry>
        </mxCell>
        <mxCell id="B22s-Yo0bM5c4fi7S5wt-25" style="edgeStyle=orthogonalEdgeStyle;rounded=0;orthogonalLoop=1;jettySize=auto;html=1;entryX=0.5;entryY=0;entryDx=0;entryDy=0;endArrow=classic;endFill=0;endSize=26;" parent="1" source="B22s-Yo0bM5c4fi7S5wt-20" target="QPdnE1CLUlIL2td6pCKr-9" edge="1">
          <mxGeometry relative="1" as="geometry" />
        </mxCell>
        <mxCell id="B22s-Yo0bM5c4fi7S5wt-27" style="edgeStyle=orthogonalEdgeStyle;rounded=0;orthogonalLoop=1;jettySize=auto;html=1;exitX=0.5;exitY=0;exitDx=0;exitDy=0;endArrow=diamond;endFill=0;endSize=26;" parent="1" source="B22s-Yo0bM5c4fi7S5wt-20" edge="1">
          <mxGeometry relative="1" as="geometry">
            <mxPoint x="705" y="180" as="targetPoint" />
          </mxGeometry>
        </mxCell>
        <mxCell id="B22s-Yo0bM5c4fi7S5wt-20" value="Searcher" style="swimlane;fontStyle=1;align=center;verticalAlign=top;childLayout=stackLayout;horizontal=1;startSize=26;horizontalStack=0;resizeParent=1;resizeParentMax=0;resizeLast=0;collapsible=1;marginBottom=0;shadow=1;" parent="1" vertex="1">
          <mxGeometry x="610" y="250" width="190" height="140" as="geometry" />
        </mxCell>
        <mxCell id="B22s-Yo0bM5c4fi7S5wt-21" value="- item : item&#xa;- Institutes : Institut&#xa;- project : Project *&#xa;- course : Course" style="text;strokeColor=none;fillColor=none;align=left;verticalAlign=top;spacingLeft=4;spacingRight=4;overflow=hidden;rotatable=0;points=[[0,0.5],[1,0.5]];portConstraint=eastwest;fontSize=10;" parent="B22s-Yo0bM5c4fi7S5wt-20" vertex="1">
          <mxGeometry y="26" width="190" height="54" as="geometry" />
        </mxCell>
        <mxCell id="B22s-Yo0bM5c4fi7S5wt-22" value="" style="line;strokeWidth=1;fillColor=none;align=left;verticalAlign=middle;spacingTop=-1;spacingLeft=3;spacingRight=3;rotatable=0;labelPosition=right;points=[];portConstraint=eastwest;" parent="B22s-Yo0bM5c4fi7S5wt-20" vertex="1">
          <mxGeometry y="80" width="190" height="2" as="geometry" />
        </mxCell>
        <mxCell id="B22s-Yo0bM5c4fi7S5wt-23" value="&#xa;geter&#xa;seter" style="text;strokeColor=none;fillColor=none;align=left;verticalAlign=top;spacingLeft=4;spacingRight=4;overflow=hidden;rotatable=0;points=[[0,0.5],[1,0.5]];portConstraint=eastwest;" parent="B22s-Yo0bM5c4fi7S5wt-20" vertex="1">
          <mxGeometry y="82" width="190" height="58" as="geometry" />
        </mxCell>
        <mxCell id="B22s-Yo0bM5c4fi7S5wt-28" value="Project" style="swimlane;fontStyle=1;align=center;verticalAlign=top;childLayout=stackLayout;horizontal=1;startSize=26;horizontalStack=0;resizeParent=1;resizeParentMax=0;resizeLast=0;collapsible=1;marginBottom=0;shadow=1;" parent="1" vertex="1">
          <mxGeometry x="880" y="280" width="150" height="130" as="geometry" />
        </mxCell>
        <mxCell id="B22s-Yo0bM5c4fi7S5wt-29" value="- name : string&#xa;- dateBegin : Date&#xa;-dateEnd : Date" style="text;strokeColor=none;fillColor=none;align=left;verticalAlign=top;spacingLeft=4;spacingRight=4;overflow=hidden;rotatable=0;points=[[0,0.5],[1,0.5]];portConstraint=eastwest;" parent="B22s-Yo0bM5c4fi7S5wt-28" vertex="1">
          <mxGeometry y="26" width="150" height="54" as="geometry" />
        </mxCell>
        <mxCell id="B22s-Yo0bM5c4fi7S5wt-30" value="" style="line;strokeWidth=1;fillColor=none;align=left;verticalAlign=middle;spacingTop=-1;spacingLeft=3;spacingRight=3;rotatable=0;labelPosition=right;points=[];portConstraint=eastwest;" parent="B22s-Yo0bM5c4fi7S5wt-28" vertex="1">
          <mxGeometry y="80" width="150" height="2" as="geometry" />
        </mxCell>
        <mxCell id="B22s-Yo0bM5c4fi7S5wt-31" value="geter&#xa;seter" style="text;strokeColor=none;fillColor=none;align=left;verticalAlign=top;spacingLeft=4;spacingRight=4;overflow=hidden;rotatable=0;points=[[0,0.5],[1,0.5]];portConstraint=eastwest;" parent="B22s-Yo0bM5c4fi7S5wt-28" vertex="1">
          <mxGeometry y="82" width="150" height="48" as="geometry" />
        </mxCell>
        <mxCell id="B22s-Yo0bM5c4fi7S5wt-34" style="edgeStyle=orthogonalEdgeStyle;rounded=0;orthogonalLoop=1;jettySize=auto;html=1;entryX=0;entryY=0.5;entryDx=0;entryDy=0;endArrow=none;endFill=0;endSize=26;" parent="1" source="B22s-Yo0bM5c4fi7S5wt-21" target="B22s-Yo0bM5c4fi7S5wt-28" edge="1">
          <mxGeometry relative="1" as="geometry" />
        </mxCell>
        <mxCell id="B22s-Yo0bM5c4fi7S5wt-43" style="edgeStyle=orthogonalEdgeStyle;curved=0;rounded=1;sketch=0;orthogonalLoop=1;jettySize=auto;html=1;exitX=0.5;exitY=0;exitDx=0;exitDy=0;entryX=0.493;entryY=0.975;entryDx=0;entryDy=0;entryPerimeter=0;strokeColor=#028090;fillColor=#F45B69;fontColor=#E4FDE1;endArrow=block;endFill=0;endSize=26;" parent="1" source="B22s-Yo0bM5c4fi7S5wt-39" target="QPdnE1CLUlIL2td6pCKr-12" edge="1">
          <mxGeometry relative="1" as="geometry" />
        </mxCell>
        <mxCell id="B22s-Yo0bM5c4fi7S5wt-39" value="Administrator" style="swimlane;fontStyle=1;align=center;verticalAlign=top;childLayout=stackLayout;horizontal=1;startSize=26;horizontalStack=0;resizeParent=1;resizeParentMax=0;resizeLast=0;collapsible=1;marginBottom=0;glass=0;rounded=0;shadow=1;" parent="1" vertex="1">
          <mxGeometry x="610" y="660" width="190" height="34" as="geometry" />
        </mxCell>
        <mxCell id="B22s-Yo0bM5c4fi7S5wt-40" value="" style="line;strokeWidth=1;fillColor=none;align=left;verticalAlign=middle;spacingTop=-1;spacingLeft=3;spacingRight=3;rotatable=0;labelPosition=right;points=[];portConstraint=eastwest;" parent="B22s-Yo0bM5c4fi7S5wt-39" vertex="1">
          <mxGeometry y="26" width="190" height="8" as="geometry" />
        </mxCell>
        <mxCell id="B22s-Yo0bM5c4fi7S5wt-44" value="Lector" style="swimlane;fontStyle=1;align=center;verticalAlign=top;childLayout=stackLayout;horizontal=1;startSize=26;horizontalStack=0;resizeParent=1;resizeParentMax=0;resizeLast=0;collapsible=1;marginBottom=0;shadow=1;" parent="1" vertex="1">
          <mxGeometry x="850" y="90" width="190" height="122" as="geometry" />
        </mxCell>
        <mxCell id="B22s-Yo0bM5c4fi7S5wt-45" value="- item : item&#xa;- Institutes : Institut&#xa;- project : Project *" style="text;strokeColor=none;fillColor=none;align=left;verticalAlign=top;spacingLeft=4;spacingRight=4;overflow=hidden;rotatable=0;points=[[0,0.5],[1,0.5]];portConstraint=eastwest;" parent="B22s-Yo0bM5c4fi7S5wt-44" vertex="1">
          <mxGeometry y="26" width="190" height="54" as="geometry" />
        </mxCell>
        <mxCell id="B22s-Yo0bM5c4fi7S5wt-46" value="" style="line;strokeWidth=1;fillColor=none;align=left;verticalAlign=middle;spacingTop=-1;spacingLeft=3;spacingRight=3;rotatable=0;labelPosition=right;points=[];portConstraint=eastwest;" parent="B22s-Yo0bM5c4fi7S5wt-44" vertex="1">
          <mxGeometry y="80" width="190" height="2" as="geometry" />
        </mxCell>
        <mxCell id="B22s-Yo0bM5c4fi7S5wt-47" value="geter&#xa;seter" style="text;strokeColor=none;fillColor=none;align=left;verticalAlign=top;spacingLeft=4;spacingRight=4;overflow=hidden;rotatable=0;points=[[0,0.5],[1,0.5]];portConstraint=eastwest;" parent="B22s-Yo0bM5c4fi7S5wt-44" vertex="1">
          <mxGeometry y="82" width="190" height="40" as="geometry" />
        </mxCell>
        <mxCell id="B22s-Yo0bM5c4fi7S5wt-49" style="edgeStyle=orthogonalEdgeStyle;curved=0;rounded=1;sketch=0;orthogonalLoop=1;jettySize=auto;html=1;exitX=0;exitY=0.5;exitDx=0;exitDy=0;entryX=1;entryY=0;entryDx=0;entryDy=0;endArrow=block;endFill=0;endSize=26;strokeColor=#028090;fillColor=#F45B69;fontColor=#E4FDE1;" parent="1" source="B22s-Yo0bM5c4fi7S5wt-47" target="B22s-Yo0bM5c4fi7S5wt-20" edge="1">
          <mxGeometry relative="1" as="geometry" />
        </mxCell>
        <mxCell id="B22s-Yo0bM5c4fi7S5wt-50" value="Course" style="swimlane;fontStyle=1;align=center;verticalAlign=top;childLayout=stackLayout;horizontal=1;startSize=26;horizontalStack=0;resizeParent=1;resizeParentMax=0;resizeLast=0;collapsible=1;marginBottom=0;shadow=1;" parent="1" vertex="1">
          <mxGeometry x="850" y="450" width="190" height="130" as="geometry" />
        </mxCell>
        <mxCell id="B22s-Yo0bM5c4fi7S5wt-51" value="- id : static size_t&#xa;- name : stringÂ &#xa;- duarationHoursInWeek : size_t" style="text;strokeColor=none;fillColor=none;align=left;verticalAlign=top;spacingLeft=4;spacingRight=4;overflow=hidden;rotatable=0;points=[[0,0.5],[1,0.5]];portConstraint=eastwest;" parent="B22s-Yo0bM5c4fi7S5wt-50" vertex="1">
          <mxGeometry y="26" width="190" height="54" as="geometry" />
        </mxCell>
        <mxCell id="B22s-Yo0bM5c4fi7S5wt-52" value="" style="line;strokeWidth=1;fillColor=none;align=left;verticalAlign=middle;spacingTop=-1;spacingLeft=3;spacingRight=3;rotatable=0;labelPosition=right;points=[];portConstraint=eastwest;" parent="B22s-Yo0bM5c4fi7S5wt-50" vertex="1">
          <mxGeometry y="80" width="190" height="2" as="geometry" />
        </mxCell>
        <mxCell id="B22s-Yo0bM5c4fi7S5wt-53" value="geter&#xa;seter" style="text;strokeColor=none;fillColor=none;align=left;verticalAlign=top;spacingLeft=4;spacingRight=4;overflow=hidden;rotatable=0;points=[[0,0.5],[1,0.5]];portConstraint=eastwest;" parent="B22s-Yo0bM5c4fi7S5wt-50" vertex="1">
          <mxGeometry y="82" width="190" height="48" as="geometry" />
        </mxCell>
        <mxCell id="B22s-Yo0bM5c4fi7S5wt-66" style="edgeStyle=orthogonalEdgeStyle;curved=0;rounded=1;sketch=0;orthogonalLoop=1;jettySize=auto;html=1;exitX=1;exitY=0;exitDx=0;exitDy=0;entryX=-0.018;entryY=0.926;entryDx=0;entryDy=0;entryPerimeter=0;endArrow=none;endFill=0;endSize=26;strokeColor=#000000;fillColor=#F45B69;fontSize=10;fontColor=#E4FDE1;" parent="1" source="B22s-Yo0bM5c4fi7S5wt-54" target="QPdnE1CLUlIL2td6pCKr-4" edge="1">
          <mxGeometry relative="1" as="geometry" />
        </mxCell>
        <mxCell id="B22s-Yo0bM5c4fi7S5wt-54" value="Student" style="swimlane;fontStyle=1;align=center;verticalAlign=top;childLayout=stackLayout;horizontal=1;startSize=26;horizontalStack=0;resizeParent=1;resizeParentMax=0;resizeLast=0;collapsible=1;marginBottom=0;shadow=1;" parent="1" vertex="1">
          <mxGeometry x="60" y="240" width="190" height="150" as="geometry" />
        </mxCell>
        <mxCell id="B22s-Yo0bM5c4fi7S5wt-55" value="- id : size_t&#xa;- name : stringÂ &#xa;- email: string&#xa;- faculty : Faculty&#xa;- items[] : Course" style="text;strokeColor=none;fillColor=none;align=left;verticalAlign=top;spacingLeft=4;spacingRight=4;overflow=hidden;rotatable=0;points=[[0,0.5],[1,0.5]];portConstraint=eastwest;" parent="B22s-Yo0bM5c4fi7S5wt-54" vertex="1">
          <mxGeometry y="26" width="190" height="84" as="geometry" />
        </mxCell>
        <mxCell id="B22s-Yo0bM5c4fi7S5wt-56" value="" style="line;strokeWidth=1;fillColor=none;align=left;verticalAlign=middle;spacingTop=-1;spacingLeft=3;spacingRight=3;rotatable=0;labelPosition=right;points=[];portConstraint=eastwest;" parent="B22s-Yo0bM5c4fi7S5wt-54" vertex="1">
          <mxGeometry y="110" width="190" height="2" as="geometry" />
        </mxCell>
        <mxCell id="B22s-Yo0bM5c4fi7S5wt-57" value="geter&#xa;seter" style="text;strokeColor=none;fillColor=none;align=left;verticalAlign=top;spacingLeft=4;spacingRight=4;overflow=hidden;rotatable=0;points=[[0,0.5],[1,0.5]];portConstraint=eastwest;" parent="B22s-Yo0bM5c4fi7S5wt-54" vertex="1">
          <mxGeometry y="112" width="190" height="38" as="geometry" />
        </mxCell>
        <mxCell id="B22s-Yo0bM5c4fi7S5wt-59" style="edgeStyle=orthogonalEdgeStyle;curved=0;rounded=1;sketch=0;orthogonalLoop=1;jettySize=auto;html=1;entryX=0;entryY=0;entryDx=0;entryDy=0;endArrow=diamond;endFill=1;endSize=26;fillColor=#F45B69;fontSize=10;fontColor=#E4FDE1;" parent="1" source="B22s-Yo0bM5c4fi7S5wt-23" target="B22s-Yo0bM5c4fi7S5wt-50" edge="1">
          <mxGeometry relative="1" as="geometry" />
        </mxCell>
        <mxCell id="B22s-Yo0bM5c4fi7S5wt-64" style="edgeStyle=orthogonalEdgeStyle;curved=0;rounded=1;sketch=0;orthogonalLoop=1;jettySize=auto;html=1;exitX=1;exitY=0.5;exitDx=0;exitDy=0;entryX=1;entryY=0.5;entryDx=0;entryDy=0;endArrow=diamond;endFill=0;endSize=26;strokeColor=#000000;fillColor=#F45B69;fontSize=10;fontColor=#E4FDE1;" parent="1" source="B22s-Yo0bM5c4fi7S5wt-57" target="B22s-Yo0bM5c4fi7S5wt-53" edge="1">
          <mxGeometry relative="1" as="geometry" />
        </mxCell>
      </root>
    </mxGraphModel>
  </diagram>
</mxfile>
